<svg xmlns="http://www.w3.org/2000/svg" width="195.999" height="244.999" viewBox="0 0 195.999 244.999">
  <g id="barel" transform="translate(-2532.5 -3057.5)">
    <path id="Union_18" data-name="Union 18" d="M12,245a12,12,0,1,1,0-24h4V145H12a12,12,0,1,1,0-24h4V44H12a12,12,0,1,1,0-24H105.99l.15-.2a50.618,50.618,0,0,1,4.5-5.157A50,50,0,1,1,165.461,96.07a49.589,49.589,0,0,1-14.016,3.639l-.446.048V121h2a12,12,0,0,1,0,24h-2v76h2a12,12,0,0,1,0,24ZM7,233.5a5.507,5.507,0,0,0,5.5,5.5h141a5.5,5.5,0,1,0,0-11H38.5a3.5,3.5,0,0,1,0-7H145V145H22v76h3.5a3.5,3.5,0,0,1,0,7h-13A5.507,5.507,0,0,0,7,233.5Zm0-100a5.507,5.507,0,0,0,5.5,5.5h141a5.5,5.5,0,1,0,0-11h-28a3.5,3.5,0,0,1,0-7H145V100.478l-.464.45.026-.949A49.955,49.955,0,0,1,96,50a50.929,50.929,0,0,1,.291-5.446L96.35,44H22v77h90.5a3.5,3.5,0,0,1,0,7H12.5A5.507,5.507,0,0,0,7,133.5ZM145.864,101h.113v-1h-.11Zm-.064,0h0l0-1Zm-.013,0h0l0-1ZM102,50A44,44,0,1,0,146,6,44.05,44.05,0,0,0,102,50ZM7,32a6.007,6.007,0,0,0,6,6H97.444l.1-.377a49.8,49.8,0,0,1,2.389-7.086c.545-1.291,1.151-2.57,1.8-3.8l.385-.733H13A6.007,6.007,0,0,0,7,32ZM36.5,211.5v-42a4,4,0,1,1,8,0v42a4,4,0,1,1-8,0Zm0-55a4,4,0,1,1,4,4A4,4,0,0,1,36.5,156.5Zm91.635-79.176A25,25,0,0,1,121.419,60a26,26,0,0,1,2.538-11.273h-.031l.218-.376a24.548,24.548,0,0,1,1.379-2.379L145.5,11.5l21.633,37.225h-.046c.306.573.589,1.158.841,1.739a23.836,23.836,0,0,1,0,19.073,24.609,24.609,0,0,1-5.395,7.788,25.179,25.179,0,0,1-7.933,5.251A24.8,24.8,0,0,1,145,84.5,22.992,22.992,0,0,1,128.135,77.324Zm10.1-41.287-7.38,12.671h.036l-.011.018h-.025a21.858,21.858,0,0,0-2.646,10.707c0,11.238,7.12,19.086,17.312,19.086,10.3,0,17.5-7.634,17.5-18.564a22.245,22.245,0,0,0-2.905-11.248h.062l-8.252-14.176h-.01L145.5,23.5Z" transform="translate(2532.5 3057.5)"/>
    <path id="Union_17" data-name="Union 17" d="M0,12.5A3.5,3.5,0,0,1,2.364,9.188C6.546,6.98,7,3.5,7,3.5a3.5,3.5,0,1,1,6.737,1.334A17.284,17.284,0,0,1,5.462,15.4a3.5,3.5,0,0,1-.469.268l-.009.005a1.623,1.623,0,0,1-.755.252A3.5,3.5,0,0,1,0,12.5Z" transform="translate(2679 3113)"/>
  </g>
</svg>
