<svg xmlns="http://www.w3.org/2000/svg" width="266.036" height="270.906" viewBox="0 0 266.036 270.906">
  <path id="cube" d="M142.974,270.829h-.053A4.984,4.984,0,0,1,139.4,269.4a4.845,4.845,0,0,1-1.452-3.483,4.9,4.9,0,0,1,1.5-3.52,5.078,5.078,0,0,1,3.479-1.462v-.031s24.4-.45,41.5-5.8a120.951,120.951,0,0,0,50.761-30.927,97.864,97.864,0,0,0,21.141-34.133l.015,0a5.026,5.026,0,0,1,1.192-1.814,5.1,5.1,0,0,1,3.587-1.471,4.844,4.844,0,0,1,3.492,1.462,5.03,5.03,0,0,1,1.427,3.544,4.907,4.907,0,0,1-.346,1.819c-.2.677-.554,1.717-1.147,3.316-1.7,4.567-7.438,14.876-11.222,20.356s-22.575,32.232-54.937,43.715c-25.183,8.935-44.754,9.927-52.2,9.927C144.32,270.906,143.215,270.844,142.974,270.829Zm-75.322-9.85C35.29,249.5,16.5,222.745,12.715,217.265S3.19,201.475,1.493,196.908C.9,195.31.549,194.27.345,193.593A4.925,4.925,0,0,1,0,191.774a5.03,5.03,0,0,1,1.427-3.544,4.844,4.844,0,0,1,3.492-1.462,5.1,5.1,0,0,1,3.587,1.471A5.012,5.012,0,0,1,9.7,190.051l.016,0a97.864,97.864,0,0,0,21.141,34.133,120.951,120.951,0,0,0,50.761,30.927c17.095,5.35,41.5,5.8,41.5,5.8v.031a5.078,5.078,0,0,1,3.479,1.462,4.9,4.9,0,0,1,1.5,3.52,4.845,4.845,0,0,1-1.452,3.483,4.984,4.984,0,0,1-3.522,1.425h-.054c-.24.015-1.345.077-3.209.077C112.406,270.906,92.834,269.915,67.652,260.979Zm70.367-14.166a5.982,5.982,0,0,1-3.086-.8L27.1,189.2a6.57,6.57,0,0,1-3.156-5.446v-121a6,6,0,0,1,4.38-5.779L134.933.8A6.325,6.325,0,0,1,141.1.8L247.919,57.082a6,6,0,0,1,4.028,5.669v121c0,.154-.005.306-.017.456a5.993,5.993,0,0,1-3,4.99L141.1,246.009a5.975,5.975,0,0,1-3,.805Zm5.928-123.3V230.957l96-50.579V72.932Zm-108,56.792,96,50.579V123.437l-96-50.581Zm6.84-117.4,95.232,50.174,95.23-50.175L138.018,12.732ZM221.948,176.752a6,6,0,1,1,6,6A6,6,0,0,1,221.948,176.752Zm-180,0a6,6,0,1,1,6,6A6,6,0,0,1,41.947,176.752Zm163-9a6,6,0,1,1,6,6A6,6,0,0,1,204.948,167.752Zm-146,0a6,6,0,1,1,6,6A6,6,0,0,1,58.947,167.752Zm129-9a6,6,0,1,1,6,6A6,6,0,0,1,187.948,158.752Zm-112,0a6,6,0,1,1,6,6A6,6,0,0,1,75.947,158.752Zm95-9a6,6,0,1,1,6,6A6,6,0,0,1,170.948,149.752Zm-78,0a6,6,0,1,1,6,6A6,6,0,0,1,92.948,149.752Zm61-9a6,6,0,1,1,6,6A6,6,0,0,1,153.948,140.752Zm-44,0a6,6,0,1,1,6,6A6,6,0,0,1,109.948,140.752Zm22.573-36.192a5.754,5.754,0,1,1,5.148,3.161A5.762,5.762,0,0,1,132.521,104.56Zm.257-18.5a5.753,5.753,0,1,1,5.149,3.162A5.763,5.763,0,0,1,132.777,86.065Zm.257-18.494a5.753,5.753,0,1,1,5.148,3.161A5.762,5.762,0,0,1,133.034,67.571Zm.257-18.495a5.753,5.753,0,1,1,5.148,3.161A5.761,5.761,0,0,1,133.291,49.076Zm.257-18.494a5.752,5.752,0,1,1,5.147,3.16A5.762,5.762,0,0,1,133.547,30.582Z" transform="translate(0 0)"/>
</svg>
