<svg xmlns="http://www.w3.org/2000/svg" width="241.661" height="191.731" viewBox="0 0 241.661 191.731">
  <path id="eye-disabled" d="M168.97,175.611a119.77,119.77,0,0,1-13.764,4.192,138.347,138.347,0,0,1-32.276,3.67,140.664,140.664,0,0,1-32.457-3.67,122.9,122.9,0,0,1-26.681-9.675A125.849,125.849,0,0,1,25.971,140.77a143.1,143.1,0,0,1-12.032-15.681A145.251,145.251,0,0,1,5.9,111.411,105.516,105.516,0,0,1,0,98.069,105.777,105.777,0,0,1,5.777,84.65,146.961,146.961,0,0,1,13.654,70.9,143.46,143.46,0,0,1,25.436,55.134,124.173,124.173,0,0,1,60.677,26.558L46.079,6.466,54.978,0l134.6,185.265-8.9,6.466ZM38.555,63.365a119.626,119.626,0,0,0-17.03,24.08,84.351,84.351,0,0,0-5,10.945,90.289,90.289,0,0,0,5.562,10.888,129.488,129.488,0,0,0,18.145,23.953c15.306,15.894,42.092,34.84,82.78,34.84a114.939,114.939,0,0,0,36.365-5.671l-13.587-18.7a51,51,0,0,1-61-80.56q.715-.715,1.456-1.4l-16.1-22.153A105.908,105.908,0,0,0,38.555,63.365ZM85.844,99.2a35,35,0,0,0,50.434,31.412L95.747,74.827A35,35,0,0,0,85.844,99.2ZM188.485,166.16h0L179.213,153.4a106.643,106.643,0,0,0,24.756-20.165,120.231,120.231,0,0,0,16.893-23.953,86.291,86.291,0,0,0,4.993-10.885v-.005a85.986,85.986,0,0,0-5.136-10.943A121.6,121.6,0,0,0,203.4,63.365c-14.819-15.979-41.185-35.026-82.633-35.026a121.034,121.034,0,0,0-29.8,3.6l-10.1-13.9c2.535-.8,5.127-1.525,7.7-2.154a138.783,138.783,0,0,1,63.572,0,119.574,119.574,0,0,1,26.226,9.727,125.765,125.765,0,0,1,37.361,29.516A145.907,145.907,0,0,1,227.7,70.9a149.284,149.284,0,0,1,8.033,13.752,107.619,107.619,0,0,1,5.93,13.416,98.41,98.41,0,0,1-5.242,13.345,136.764,136.764,0,0,1-7.369,13.678,133.412,133.412,0,0,1-11.262,15.681,118.681,118.681,0,0,1-29.3,25.392Zm-26.622-36.643-10.107-13.91A35.009,35.009,0,0,0,114.79,64.726L104.683,50.815a51,51,0,0,1,57.182,78.7v0Z" fill="#808386" opacity="0.5"/>
</svg>
