<svg xmlns="http://www.w3.org/2000/svg" width="241.662" height="171.271" viewBox="0 0 241.662 171.271">
  <path id="eye" d="M90.474,167.6a122.868,122.868,0,0,1-26.681-9.675,125.861,125.861,0,0,1-37.821-29.358A143.174,143.174,0,0,1,13.94,112.887,145.376,145.376,0,0,1,5.9,99.209,104.478,104.478,0,0,1,0,85.864,106.666,106.666,0,0,1,5.778,72.447,147.134,147.134,0,0,1,13.655,58.7,143.518,143.518,0,0,1,25.437,42.932,123.742,123.742,0,0,1,62.464,13.416,118.265,118.265,0,0,1,88.579,3.689a138.783,138.783,0,0,1,63.572,0,119.562,119.562,0,0,1,26.226,9.727,125.765,125.765,0,0,1,37.361,29.516A145.794,145.794,0,0,1,227.7,58.7a149.288,149.288,0,0,1,8.033,13.752,108.029,108.029,0,0,1,5.93,13.416,98.858,98.858,0,0,1-5.242,13.345,136.7,136.7,0,0,1-7.369,13.678,133.433,133.433,0,0,1-11.262,15.681A115.376,115.376,0,0,1,155.207,167.6a138.348,138.348,0,0,1-32.276,3.67A140.665,140.665,0,0,1,90.474,167.6ZM38.556,51.163a119.613,119.613,0,0,0-17.03,24.08,84.17,84.17,0,0,0-5,10.946,90,90,0,0,0,5.562,10.887,129.477,129.477,0,0,0,18.145,23.953c15.306,15.894,42.093,34.84,82.78,34.84s66.485-18.946,80.961-34.84a120.232,120.232,0,0,0,16.893-23.953,85.124,85.124,0,0,0,4.994-10.887,85.248,85.248,0,0,0-5.137-10.946A121.6,121.6,0,0,0,203.4,51.163c-14.819-15.979-41.185-35.026-82.633-35.026S53.183,35.185,38.556,51.163Zm62.438,82.829A51.168,51.168,0,1,1,120.845,138,50.827,50.827,0,0,1,100.993,133.992ZM85.845,87a35,35,0,1,0,35-35A35.04,35.04,0,0,0,85.845,87Z" fill="#808386"/>
</svg>
