<svg xmlns="http://www.w3.org/2000/svg" width="375" height="360" viewBox="0 0 375 360">
  <path id="gas_cylender" data-name="gas cylender" d="M191.761,360A31.734,31.734,0,0,1,160,328.239V273.5H133v54.739A31.734,31.734,0,0,1,101.239,360H31.761A31.734,31.734,0,0,1,0,328.239V134.5A66.573,66.573,0,0,1,40.615,73.227Q43.273,72.1,46,71.219v-19.3A23,23,0,0,1,25,29V23A23,23,0,0,1,48,0H85a23.013,23.013,0,0,1,22.655,19h77.69A23.013,23.013,0,0,1,208,0h37a23.011,23.011,0,0,1,22.737,19.5H273c6.075-.576,32.944-1.933,53.258,16.219,23.04,20.59,21.261,40.8,21.261,40.8l-.015.01V190.8a35,35,0,1,1-15,0V76.5h0c-.1-9.89-3.705-15.2-14.876-29.506-10.789-13.818-31.69-13.548-33.126-13.512V33.5H267.563A23.022,23.022,0,0,1,247,51.915v19.3q2.726.883,5.385,2.008A66.446,66.446,0,0,1,293,134.5V328.239A31.734,31.734,0,0,1,261.239,360ZM175,328.09A16.93,16.93,0,0,0,191.911,345H261.09A16.93,16.93,0,0,0,278,328.09V316H175Zm-160,0A16.93,16.93,0,0,0,31.91,345H101.09A16.93,16.93,0,0,0,118,328.09V316H15ZM175,301H278V146H175ZM15,301H118V146H15Zm145-40.5v-93H133v93ZM319,225a21,21,0,1,0,21-21A21.023,21.023,0,0,0,319,225ZM160,154.5v-20a66.573,66.573,0,0,1,40.615-61.274Q203.272,72.1,206,71.219v-19.3A23.027,23.027,0,0,1,185.542,34H107.458A23.027,23.027,0,0,1,87,51.915v19.3q2.726.883,5.385,2.008A66.446,66.446,0,0,1,133,134.5v20ZM175.118,131H277.882a51.5,51.5,0,0,0-102.764,0Zm-160,0H117.882a51.5,51.5,0,0,0-102.764,0ZM233,68.312V52H220V68.312q3.222-.31,6.5-.311T233,68.312Zm-160,0V52H60V68.312Q63.223,68,66.5,68T73,68.312ZM199,23v6a9.01,9.01,0,0,0,9,9h37a9.01,9.01,0,0,0,9-9V23a9.01,9.01,0,0,0-9-9H208A9.01,9.01,0,0,0,199,23ZM39,23v6a9.01,9.01,0,0,0,9,9H85a9.01,9.01,0,0,0,9-9V23a9.01,9.01,0,0,0-9-9H48A9.01,9.01,0,0,0,39,23ZM185,250V235h83v15ZM25,250V235h83v15Zm306-25a9,9,0,1,1,9,9A9,9,0,0,1,331,225ZM186,192V177h83v15ZM26,192V177h83v15Z"/>
</svg>
