<?xml version="1.0" encoding="utf-8"?>
<!-- Generator: Adobe Illustrator 15.0.0, SVG Export Plug-In . SVG Version: 6.00 Build 0)  -->
<!DOCTYPE svg PUBLIC "-//W3C//DTD SVG 1.1//EN" "http://www.w3.org/Graphics/SVG/1.1/DTD/svg11.dtd">
<svg version="1.1" id="Layer_1" xmlns="http://www.w3.org/2000/svg" xmlns:xlink="http://www.w3.org/1999/xlink" x="0px" y="0px"
	 width="19.918px" height="20.068px" viewBox="0.205 0.406 19.918 20.068" enable-background="new 0.205 0.406 19.918 20.068"
	 xml:space="preserve">
<g id="Layer_2" display="none">
</g>
<g id="Layer_1_1_">
	<path fill="#046B99" d="M10.164,0.516c2.63,0,5.104,1.033,6.965,2.907c1.86,1.874,2.885,4.366,2.885,7.017
		s-1.024,5.143-2.885,7.016c-1.861,1.875-4.335,2.908-6.965,2.908c-2.631,0-5.105-1.033-6.965-2.908
		c-1.86-1.873-2.885-4.366-2.885-7.016s1.024-5.143,2.885-7.018C5.06,1.548,7.533,0.516,10.164,0.516z M10.164,18.813
		c4.583,0,8.313-3.757,8.313-8.374c0-4.618-3.729-8.374-8.313-8.374c-4.583,0-8.31,3.755-8.31,8.374
		C1.854,15.056,5.581,18.813,10.164,18.813z M6.151,10.439l5.32,5.36l1.087-1.095l-4.23-4.265l4.23-4.264l-1.087-1.097L6.151,10.439
		z"/>
</g>
</svg>
