<svg xmlns="http://www.w3.org/2000/svg" width="254.999" height="254.999" viewBox="0 0 254.999 254.999">
  <path id="tower" d="M0,255V241H30V211H53.66L98.691,61H87V47h15V17h18V0h15V17h19V47h14V61H156.984L161.8,77H162v.644L202.178,211H225v30h30v14Zm45-29.5V241H210V225H45Zm90-15h30.873L135,188.452Zm-45.857-.032H119.5V188.289Zm51.238-35.943,44.1,31.1-15.422-51.238Zm-70,31.1,44.1-31.1L85.8,154.385Zm56.489-39.766,23.07-16.357H104.321ZM138.978,134.5h24.6l-8.667-29.95Zm-47,0h24.6l-15.933-29.95Zm35.4-9.175L144.331,91.5h-33.9ZM108.388,76.5H146.5l-4.59-15.286H113.486ZM117,31.5V47h22V31H117Z"/>
</svg>
